<?xml version="1.0" standalone="no"?>
<!DOCTYPE svg PUBLIC "-//W3C//DTD SVG 20010904//EN"
 "http://www.w3.org/TR/2001/REC-SVG-20010904/DTD/svg10.dtd">
<svg version="1.0" xmlns="http://www.w3.org/2000/svg"
 width="260.000000pt" height="260.000000pt" viewBox="0 0 260.000000 260.000000"
 preserveAspectRatio="xMidYMid meet">
<metadata>
Created by potrace 1.14, written by Peter Selinger 2001-2017
</metadata>
<g transform="translate(0.000000,260.000000) scale(0.100000,-0.100000)"
fill="#000000" stroke="none">
<path d="M0 1300 l0 -1300 1300 0 1300 0 0 1300 0 1300 -1300 0 -1300 0 0
-1300z m1924 984 c16 -8 34 -14 40 -14 28 0 139 -87 189 -148 83 -102 130
-211 172 -397 27 -120 25 -463 -4 -597 -44 -206 -103 -333 -208 -443 -123
-129 -326 -181 -491 -126 -208 71 -328 224 -406 521 -17 61 -36 254 -36 355 0
106 20 292 38 365 55 215 174 385 317 454 22 10 49 24 60 29 51 27 274 27 329
1z m-944 -14 c17 -32 8 -1285 -10 -1365 -56 -254 -173 -365 -385 -365 -79 0
-172 23 -198 49 -6 6 -16 11 -22 11 -6 0 -30 20 -54 44 -46 47 -46 51 -16 121
7 17 23 52 34 79 l22 50 47 -45 c69 -65 100 -79 174 -79 59 0 66 2 95 32 83
89 85 100 90 838 3 471 7 637 16 642 7 4 53 8 104 8 83 0 93 -2 103 -20z"/>
<path d="M1678 2073 c-92 -28 -193 -162 -228 -303 -39 -155 -49 -349 -26 -520
20 -146 32 -193 77 -286 42 -86 79 -131 144 -173 35 -22 51 -26 120 -26 70 0
85 4 121 27 80 52 153 161 183 273 37 141 41 176 41 369 0 206 -10 280 -51
396 -35 97 -77 156 -153 218 -24 19 -105 42 -146 41 -19 -1 -56 -8 -82 -16z"/>
</g>
</svg>
